<svg id="Calque_1" data-name="Calque 1" xmlns="http://www.w3.org/2000/svg" viewBox="0 0 1208.69 448.46"><defs><style>.cls-1{fill:#c7c8aa;}.cls-2{fill:#d8d5c4;}.cls-3{fill:#576a2c;}.cls-4{fill:#4c6911;}.cls-5{fill:#4e6222;}.cls-6{fill:#d5d9bd;}.cls-7{fill:#475812;}.cls-8{fill:#51621a;}.cls-9{fill:#3c3211;}.cls-10{fill:#425012;}.cls-11{fill:#383510;}.cls-12{fill:#3d4010;}.cls-13{fill:#404611;}.cls-14{fill:#3f360f;}.cls-15{fill:#2c1d0c;}.cls-16{fill:#30210e;}.cls-17{fill:#362711;}.cls-18{fill:#423019;}.cls-19{fill:#dfded1;}.cls-20{fill:#495e1e;}.cls-21{fill:#4e6423;}.cls-22{fill:#4c641c;}.cls-23{fill:#56712b;}.cls-24{fill:#3c5412;}.cls-25{fill:#495d1b;}.cls-26{fill:#506b27;}.cls-27{fill:#455c17;}.cls-28{fill:#4b5a2a;}.cls-29{fill:#526a28;}.cls-30{fill:#516521;}.cls-31{fill:#456116;}.cls-32{fill:#4a6615;}.cls-33{fill:#476115;}.cls-34{fill:#4e661b;}.cls-35{fill:#566c21;}.cls-36{fill:#496317;}.cls-37{fill:#dedccf;}.cls-38{fill:#3c4916;}.cls-39{fill:#4c6c14;}.cls-40{fill:#392d12;}.cls-41{fill:#dcdacb;}.cls-42{fill:#4b6615;}.cls-43{fill:#415721;}.cls-44{fill:#475e20;}.cls-45{fill:#34320e;}.cls-46{fill:#2c2c0d;}.cls-47{fill:#3e4b13;}.cls-48{fill:#dbd9ca;}.cls-49{fill:#2e230d;}.cls-50{fill:#332c0f;}.cls-51{fill:#412910;}.cls-52{fill:#281c0c;}.cls-53{fill:#251b08;}.cls-54{fill:#3a4310;}.cls-55{fill:#4c6119;}.cls-56{fill:#466019;}.cls-57{fill:#556920;}.cls-58{fill:#6e7939;}.cls-59{fill:#506b29;}.cls-60{fill:#322410;}.cls-61{fill:#302411;}.cls-62{fill:#495d27;}.cls-63{fill:#ddded3;}.cls-64{fill:#486327;}.cls-65{fill:#2d2210;}.cls-66{fill:#30220c;}.cls-67{fill:#4f652c;}.cls-68{fill:#546131;}.cls-69{fill:#f3ebd8;}.cls-70{fill:#261908;}.cls-71{fill:#526c29;}.cls-72{fill:#3d4b17;}.cls-73{fill:#4e6623;}.cls-74{fill:#516623;}.cls-75{fill:#486214;}.cls-76{fill:#435f12;}.cls-77{fill:#435c0e;}.cls-78{fill:#4d691a;}.cls-79{fill:#445d10;}.cls-80{fill:#456221;}.cls-81{fill:#3b5221;}.cls-82{fill:#34260f;}.cls-83{fill:#4d6a19;}.cls-84{fill:#2e220e;}.cls-85{fill:#455d1c;}.cls-86{fill:#342e0e;}.cls-87{fill:#3c2f13;}.cls-88{fill:#373720;}.cls-89{fill:#242215;}.cls-90{fill:#2f3811;}.cls-91{fill:#291e0c;}.cls-92{fill:#261e0d;}.cls-93{fill:#33320f;}.cls-94{fill:#353810;}.cls-95{fill:#56471e;}.cls-96{fill:#25190a;}.cls-97{fill:#261907;}.cls-98{fill:#435b18;}.cls-99{fill:#4e6b24;}.cls-100{fill:#496820;}.cls-101{fill:#453f17;}.cls-102{fill:#2a2111;}.cls-103{fill:#445215;}.cls-104{fill:#515c1b;}.cls-105{fill:#526222;}.cls-106{fill:#5a6124;}.cls-107{fill:#312b14;}.cls-108{fill:#e2e2d8;}.cls-109{fill:#352610;}.cls-110{fill:#cbd6a8;}.cls-111{fill:#425f26;}.cls-112{fill:#43601f;}.cls-113{fill:#4f6124;}.cls-114{fill:#645729;}.cls-115{fill:#b0ac83;}.cls-116{fill:#453a17;}.cls-117{fill:#504925;}.cls-118{fill:#47671b;}.cls-119{fill:#456219;}.cls-120{fill:#4c6b1f;}.cls-121{fill:#3b4d17;}.cls-122{fill:#48531a;}.cls-123{fill:#464c16;}.cls-124{fill:#676e2e;}.cls-125{fill:#59602a;}.cls-126{fill:#5d6225;}.cls-127{fill:#566e24;}.cls-128{fill:#373214;}.cls-129{fill:#2d210e;}.cls-130{fill:#23170a;}.cls-131{fill:#20150b;}.cls-132{fill:#2c3c06;}.cls-133{fill:#d8d8a6;}.cls-134{fill:#455116;}.cls-135{fill:#6f7643;}.cls-136{fill:#485815;}.cls-137{fill:#404912;}.cls-138{fill:#635d25;}.cls-139{fill:#e0e0d4;}.cls-140{fill:#807940;}.cls-141{fill:#416213;}.cls-142{fill:#636a27;}.cls-143{fill:#e3e4d5;}.cls-144{font-size:150px;letter-spacing:0.15em;}.cls-144,.cls-145{font-family:Stencil;}.cls-145{font-size:26.83px;letter-spacing:0.1em;}</style></defs><rect class="cls-1" y="36.87" width="1208.69" height="411.59"/><path class="cls-2" d="M127.73-34c-2,1.67-4,3.12-5.93,0Z" transform="translate(-1.7 34.04)"/><path class="cls-2" d="M56.67,62.27c-.15.23-.32.77-.65.92-.57.25-.94-.26-.92-.76a1.48,1.48,0,0,1,.59-1.12C56.25,61.05,56.52,61.55,56.67,62.27Z" transform="translate(-1.7 34.04)"/><path class="cls-3" d="M138.69,350.37c.32-4-.2-8,.89-12,1.28-2.93.7-5.93.31-8.92a55.17,55.17,0,0,1,2-16c3,.81,3.12.91,2.17,4.09s-1.74,6.06.43,8.95c1.86,2.62,1.26,5.73,1.71,8.64.27,1.8.24,3.76,2.41,4.47,1.83.6,3.1-.36,4.34-1.63,3.58-3.67,7.85-1,11.81-1.15,1.7.47,2.25,1.8,2.5,3.35-1.67,4.87-6.59,5.73-10.19,8.22A19.51,19.51,0,0,0,153.4,350a11.84,11.84,0,0,1-1.17.62c-1.43.59-2.86,1.23-4.48.89l-3,1.93c-2-.14-3.2,1.68-5,2.07C137.68,354.13,138.07,352.27,138.69,350.37Z" transform="translate(-1.7 34.04)"/><path class="cls-4" d="M277.57,81.69c.91-.68,1-2.44,2.71-2.06,1.68-.91,4.44-.33,4.58-3.35.92-1.77,2.55-2.67,4.21-3.54,3.88-1.9,7.9-3.53,11.72-5.57a9.67,9.67,0,0,1,1.28-.55c3.64-2,8.35-.65,11.59-3.83l2.93.27c4.7-.17,4,3.06,3.77,6a6.71,6.71,0,0,1-2.35,3,5.34,5.34,0,0,1-1.3.67c-3,.54-6.38-.22-6.65,5-.16,3-4.75,2.9-7.17,4.45-4.33,2.77-8.37,5.1-8.59,10.93,0,1.13-1.15,2-1.91,2.85a15.35,15.35,0,0,0-4.31,5.32c-2.13,1.87-3,5.45-6.78,5.06-1.9-1.24-2.15-2.71-.67-4.47.25-.29,1.92,1.22.84-.65-1.88-3.24-1.66-6.07,1.11-8.85,2.53-2.55.67-4-1.76-5.06S275.61,85.32,277.57,81.69Z" transform="translate(-1.7 34.04)"/><path class="cls-5" d="M319.5,69.75c0-2.64.79-5.65-2.91-6.69.81-.2,1.72-.25,2.05-1.25,2.05-.08,3.42-.35,3.2,3-.52,8-1.27,16-2.07,23.92,1.71,3.65.78,6.84-1.71,9.76-2.33,1.16-3.34-.08-3.79-2.15a11.8,11.8,0,0,1,.22-5.81,34.91,34.91,0,0,0,3-18.74h0C319.49,72.38,318.6,70.18,319.5,69.75Z" transform="translate(-1.7 34.04)"/><path class="cls-6" d="M301.7,68c.81-3.78,5-2,6.83-4.2,1.94.88,3.43-.6,5.13-1C310.51,66.46,305.76,66.43,301.7,68Z" transform="translate(-1.7 34.04)"/><path class="cls-7" d="M111.63,114.73l-1.9-5a20.28,20.28,0,0,1-1.62-13.8c.67-3.08.24-6.69,4.06-8.28.6-.25.47-1.13.5-1.8.28-5.94.29-5.94,6.4-5.2,5,.41,9.71,2.2,14.54,3.44,2-.81,3.61.68,5.43.89,1.61.88,3.61,1.17,4.57,3a4.55,4.55,0,0,0,.17.73c-5,1.35-8.36,4.82-12.16,8.24s-8.49,6.18-13,8.91c-3.22,2-5,4.4-2.35,8.12a3.53,3.53,0,0,1,.58,1.88c.08,1.66.25,3.66-1.8,4.08s-1.85-1.82-2.46-3C112.23,116.2,112.44,115.24,111.63,114.73Z" transform="translate(-1.7 34.04)"/><path class="cls-8" d="M119.07,80.62c-3.77.09-8-.26-4.44,5.68.51.86.29,3-.79,3-5.12-.21-3.94,4.11-5.19,6.68-.37.23-.63.16-.77-.27-.85-5.35-1.63-10.72-2.56-16.06-.4-2.3-.09-3.08,2.47-2.2C111.48,78.67,115.3,79.57,119.07,80.62Z" transform="translate(-1.7 34.04)"/><path class="cls-9" d="M219.64,35.81l2.05,3A5.68,5.68,0,0,0,222.76,42c3,5.08,1.72,9-2.14,13.37-3.69,4.21-5,10-6.18,15.57,0,12-.38,23.91-.36,35.86,0,2.28.48,4.7-1.16,6.72-2.62.45-2.41-1.65-2.57-3.1a65.8,65.8,0,0,1-.11-8.31c2-9.73.3-19.55.77-26.72.12,5.89.23,14.4.08,22.91-3.7,4.8-6.16,5.28-11.15,2.19-3.81-2.37-6.12-1.18-6.7,3.31-.3,2.28.6,6.1-2.71,5.94s-2.05-3.91-2.24-6.22c-.16-1.84-.1-3.66-1.3-5.21-1.85-5.54-1.92-11,.85-16.28,2.37-9.52,5-18.93,9.92-27.53,1-1.8,1.46-4.16,3.85-4.92,6.48-2.52,12.7-5.4,16.65-11.55A3.89,3.89,0,0,1,219.64,35.81Z" transform="translate(-1.7 34.04)"/><path class="cls-10" d="M111.63,114.73c1.85.89,1.6,3.19,3.26,4.71,1-2.11,1.61-3.73-.36-5.65a4.55,4.55,0,0,1,.76-7.5c5.51-3.18,9.82-8.16,15.88-10.37,1.6-.58,2.76-1.15,2.56-3-.46-4.29,2-4.85,5.21-3.88,1.8.55,3.24-.19,4.84-.33.75,0,1.44.15,1.67,1,0,4.74-2.51,8.35-5.24,11.86-1.62,2.08-3.36,4.06-3.67,6.83a5.19,5.19,0,0,0,.3,4.29c.92,2,2.74,3.73,2.35,6.25-.35,2.36-2.88,1.77-4.3,3.12-.37.17.76.66.29.19-.14-.13,0-.2.3-.39,2.58-1.7,4.68-1,6.39,1.32,2,2.71,2.08,8.48-.15,10.71-2.76,2.75-5.23,6.06-9.53,6.64a2.87,2.87,0,0,0-2.67,1.85c-.73,2.06-2.27,1.41-3.71,1.09a5.35,5.35,0,0,1-2.32-1.27c-.82-.95-1.53-2-2.45-2.88-.37-.52-.74-1-.24-1.68-2.62-5.93-6.22-11.41-8-17.72C112.32,118.24,112,116.47,111.63,114.73Z" transform="translate(-1.7 34.04)"/><path class="cls-11" d="M159.74,97.65l5,4a2.15,2.15,0,0,1,.53,1.2c-.1,2.89,3.7,3.11,4,5.76a4.66,4.66,0,0,1,.13,1.39c-.09.83-.07,2-.64,2.35-4.49,3-5.59,8.43-8.62,12.48-2.35,3.14-4.57,3.84-7.88,2.36a3.61,3.61,0,0,1-2-3.6c-1.58-6.62.68-12.18,4.58-17.4,1.55-2.08,1.58-4.61,1-7.17-.29-1.24-1-3.41,1.87-2.28Z" transform="translate(-1.7 34.04)"/><path class="cls-12" d="M157.63,96.75a9.13,9.13,0,0,0-1.1.68c3.26,7.19-1,11.89-5.5,16.43-1.14,1.15.07,1.63.13,2.42.2,2.52,2.64,5.33-.72,7.51-3.74-.56-5.48-3.44-7.25-6.28,2.52-2.42,1.26-4.37-.48-6.67-2.56-3.39-1.79-6.78,2.31-9.15,3.77-2.17,7.32-3.83,2.66-8.48-.37-.36.39-1.16,1-1.43C151.78,93.28,155.21,94.11,157.63,96.75Z" transform="translate(-1.7 34.04)"/><path class="cls-13" d="M148.73,91.78c-.16.59-.67,1.21,0,1.76,1,.78,3.64-.06,2.6,2.74-.82,2.21.2,5.08-3.92,5.66-4.78.68-6,5.28-3.06,8.92a15.65,15.65,0,0,1,3.27,6.49c-1.5,2.15-2.4-3.68-3.91-.17-3.18.27-3.69-.12-6.85-5.3a8.83,8.83,0,0,1-1.15-3.26,2.59,2.59,0,0,1-.11-2.8c3.67-5.12,7.36-10.21,9.81-16.08Z" transform="translate(-1.7 34.04)"/><path class="cls-14" d="M219.64,38.78c-1.92,3-6.27,4.1-6.64,8.37,0,.17-.55.44-.83.43-3.58-.15-6.67.71-9.23,3.5-.63.69-1.13-.69-1.33-1.46q1.53-3.42,3.07-6.84c2.53-3.59,5.13-7.14,7.59-10.78,1.71-2.53,3.3-2,5-.07,1.28.38,1.5,1.48,1.74,2.57A4.28,4.28,0,0,0,219.64,38.78Z" transform="translate(-1.7 34.04)"/><path class="cls-15" d="M96.83,160.77l4-.91c5.41-3.35,11.23-1.74,16.92-1.29,1.61.13,3.23.66,4.88.79a118.39,118.39,0,0,1,12,4.09c10.71,4,19.56,10.73,27.65,18.6a90.66,90.66,0,0,0,8.3,9.53c1,1,2.35,1.81,2.4,3.49-1.44,2.54-4.54,1.78-6.5,3.3-5.35.5-9.92-2.6-15-3.25a49.14,49.14,0,0,1-10.84-1.88,16.34,16.34,0,0,1-5.21-1.42c-1.56-1-3.39-.75-5.1-1.07-5-1.23-10.16-1.51-14.9-3.64-1.27-.8-2.79-1-4.11-1.62-1.77-.85-4.61-.34-4.91-3.3s.91-5.11,4.52-6.65c-4.25-.83-5.44-3-5.21-6.64.21-3.28-1.34-5.66-5.14-5.94C99.1,162.85,97.05,163.22,96.83,160.77Z" transform="translate(-1.7 34.04)"/><path class="cls-16" d="M96.83,160.77c1.06,1.1,2.45.83,3.75.87,5,.18,7.44,2.64,6.57,7.68-.62,3.57.44,4.57,3.72,4.34,1.11-.07,2.52-.16,2.61,1.52a2,2,0,0,1-1.94,1.95c-2.75.38-4.25,1.68-3.88,4.54s3.18,1.67,4.66,2.78c.9.68,2.7-.16,3.34,1.51a5.21,5.21,0,0,1-4.68.86c-8.19-1.74-16.55-2.27-24.79-3.63-3.65-1.05-1,2.35-2.14,3.08-.77,1.54-.69,3.06.89,3.87,2.58,1.32,4.19,3.69,6.37,5.43,3.69,2.94,4.91,6.88,3,9.65-1.71,2.41-8.45,3.45-11.46,1.7-2-1.16-3.55-2.94-5.59-4.08-1.45-.81-2.8-1.73-4.54-1.71a2,2,0,0,1-1.35-1.52,14,14,0,0,0-1.48-9.92c-1.85-3.46-.57-8.12-1.51-12.18-.48-2.08.75-5-3.08-5.15-.49,0-.75-1-.41-1.71C75.13,166.15,85.4,161.57,96.83,160.77Z" transform="translate(-1.7 34.04)"/><path class="cls-17" d="M64.85,170.65c1.33,3.63,5-1.28,6.58,2-4,1.9-1.42,5.24-1.26,7.94.14,2.26,1,4.48.24,6.77-.45,1.3,0,2.08,1,2.92,3.59,2.88,2.77,6,.4,9.23-2.56.48-4-.7-4.74-3.08L55.77,184.77c0-3.34-.63-6.68.12-10A39.93,39.93,0,0,1,64.85,170.65Z" transform="translate(-1.7 34.04)"/><path class="cls-18" d="M55.89,174.76c1.08,3.35,2.68,6.7-.12,10l-6.38-6.19C50.4,175.34,53.71,176,55.89,174.76Z" transform="translate(-1.7 34.04)"/><path class="cls-19" d="M83.82,213.58c-.12,1.39.4,2.93-1,4C81.17,215.75,82.81,214.74,83.82,213.58Z" transform="translate(-1.7 34.04)"/><path class="cls-20" d="M301.53,345.55l-9.94-4.25c-1.68-1.75-3.87-2.35-6.15-2.77l0,0a7.93,7.93,0,0,1-1.1-1.86c-1.38-2.73,2.44-4.21,1.93-5.75-.62-1.88-2.53-3.58-1.9-5.76.9-3.13.14-7.55,5.24-8,1.19,1.07,2.06.59,3.42-.1,4-2.08,6.44-.28,9.92,2.11,8.8,6.06,4.61,14.73,5.39,22.33.31,3-1.7,5-5.2,4.05Z" transform="translate(-1.7 34.04)"/><path class="cls-21" d="M303.17,345.57c3.2-.5,4.4-2.44,4.39-5.58,0-5.56.1-11.1-1.5-16.5-.12-.39.1-1.38-.23-1.19-4.85,2.85-3.89-1.28-4.65-3.65-.45-1.38-6.79-1.77-7.75-.63-2.26,2.68-2.26,2.68-4-.4,0-.22-.06-.44-.08-.66-.36-1.95-1.19-3.87-.33-5.89.4-.73,1.08-1.84,1.67-1.57,2.84,1.3,3.49-.77,4.55-2.54,2.45-4.12,6.33-6.14,10.11-5.42l.35-.14c.67.7.41,1.65.67,2.47,3.17,14.34,3,28.92,3.14,43.48A8.55,8.55,0,0,1,303.17,345.57Z" transform="translate(-1.7 34.04)"/><path class="cls-22" d="M139.52,284.45a50.52,50.52,0,0,1-25.72,8.94c-.75-.94,2.7-2.42-.39-3.09a.48.48,0,0,1-.31-.36c.7-6.25-4.84-10.69-4.86-16.74,1.38-3.05,4.8-2.89,7.07-4.55a141,141,0,0,0,13.89-8.16,18.91,18.91,0,0,1,8.64-3.53c1.59.43,3.89.91,2.77,3-2.78,5.26-.74,10.45,0,15.53A15.41,15.41,0,0,1,139.52,284.45Z" transform="translate(-1.7 34.04)"/><path class="cls-23" d="M144.38,303.3c2.11-7.28,6.41-13.42,10.25-19.8,2.47-6.78,7.85-10.49,14.05-13.34,2.27,1.11,1.89,3.17,1.86,5.13s0,4,2.15,4.46c3.54.7,4.69,2.19,3.11,5.59-.32.68.42,1.54.57,2.34-2,7.12-6.27,12.84-11,18.34a7.75,7.75,0,0,0-.84.5c-4.48,4-4.54,4.08-7.62-1.09-1-1.74-2.13-2.39-4-1.41-1.16.61-2.4,1.09-3.55,1.74C146.51,307.4,144.79,306.74,144.38,303.3Z" transform="translate(-1.7 34.04)"/><path class="cls-24" d="M151.74,275.86l-.63-.16c-3.89-3.54-8.34-6.81-7.43-13,.47-3.15-.83-6.2-.22-9.33,4.19-4.29,9.34-7.15,14.63-9.8a20.47,20.47,0,0,0,4.41-1.9c1.5-.7,2.85-1.81,4.64-1.71,6,1.09,7.08,2.89,4.35,8.35a112.92,112.92,0,0,1-9.76,16.06c-1,1.33-2.22,2.48-2.35,4.26C157.5,271.73,155.42,274.63,151.74,275.86Z" transform="translate(-1.7 34.04)"/><path class="cls-25" d="M108.6,273.42c1.74,1.54-.64,7,4.8,5a12.7,12.7,0,0,1,.1,6.39c-.76,3.58.08,5.9,4.55,5.84l-4.25,2.74-1.83.17c-2.63,1.09-5.49-.2-8.14.75h-6c-1.32-4.11-2.76-8-1.94-12.67,1.17-6.6,2-7.9,8.84-8.18a10.24,10.24,0,0,0,1.9-.55A2.16,2.16,0,0,1,108.6,273.42Z" transform="translate(-1.7 34.04)"/><path class="cls-26" d="M144.38,303.3c1.27,1.05,2,3.63,4.41,1.23.75-.76,2.27-.72,3.12-1.43,3.59-3,5.37-1.85,6.53,2.29.38,1.35,1.47,2.55,1.32,4.11,2.73-.39,1.3-5.15,5-4.15.23,2-.67,3.69-1.27,5.48-2.41,3.53-3.64,8-7.74,10.22-2.07-.25-4.07-.79-6.07.74a5.13,5.13,0,0,1-5.61.26c-.44-.46-1-.9-.31-1.58a.9.9,0,0,0-.31,1.12,12,12,0,0,1,1.22,3.2,2.94,2.94,0,0,1-.88,2.66c-3.71-3.12-2.06-6.86-1-10.36.5-1.63,1.75-3-.9-3.63C141.73,309.83,143.16,306.59,144.38,303.3Z" transform="translate(-1.7 34.04)"/><path class="cls-27" d="M143.75,253.75c1,2.54,2.34,5,1.47,7.89-1.06,3.49-.69,6.6,2.75,8.69,2,1.22,1.83,3.73,3.14,5.37a31.89,31.89,0,0,1-11.59,8.75c-2-2.43.31-5-.05-7.73-.71-5.42-4.44-11.35.2-17,1.21-1.47-1.68-.93-1.91-2C138.76,254.88,140.45,253.09,143.75,253.75Z" transform="translate(-1.7 34.04)"/><path class="cls-28" d="M139.89,329.48c1.22,3,1.67,6-.31,8.92C139.68,335.43,139.79,332.45,139.89,329.48Z" transform="translate(-1.7 34.04)"/><path class="cls-22" d="M103.83,294.31c2.59-1.62,5.43-.54,8.14-.75a6.75,6.75,0,0,0-.25.76Z" transform="translate(-1.7 34.04)"/><path class="cls-29" d="M194.56,305.44c-5.14,15-14.61,26.52-27.93,35l-1.91-3c-1.7-2.72,0-4.85,1.48-6.72,4.32-5.43,4.66-12.11,6-18.46.1-.47-2.6-.73-2.87-2.46.06-3.79,3-6.25,4.4-9.41q.64-1.22,1.38-2.4c3-4.05,5.21-8.63,7.82-13,.94-1.36,1.72-2.94,3.76-2.83,2.57,2.22,3.2,5.61,4.91,8.34,2.87,0,2-7.06,6.7-3.53a11.35,11.35,0,0,1-.47,4.45l-.24,2.75a.68.68,0,0,1-.74.62A22.27,22.27,0,0,0,194.56,305.44Z" transform="translate(-1.7 34.04)"/><path class="cls-30" d="M169.89,309.48c5.37,2.3,3,6.42,2.63,10.28-.66,6.81-6.4,11.26-7.8,17.67-.14.1-.29.3-.41.28-5.52-.92-10.11,1.61-15,3.56-2.92,1.16-4.33-1.38-4.57-4.28-.26-3.19-.66-6.36-1-9.54v-3a2.42,2.42,0,0,1,0-3c2.27-.32,4.62.74,6.53-2.11,1.67-2.49,3.71.36,5.53,1.13,2.12,2.29,3.84,1.9,5.44-.66,1.39-2.23,3-4.35,4.18-6.68a9.19,9.19,0,0,1,2.48-3.25A3.33,3.33,0,0,1,169.89,309.48Z" transform="translate(-1.7 34.04)"/><path class="cls-31" d="M315.53,89.73c0,2.23,0,4.46,0,6.69,0,1.76,1,1.7,2.17,1.35a2.2,2.2,0,0,1,.33,2.07c-1.32,1.88-1.08,4.08-1.2,6.21a3.49,3.49,0,0,1-1.32,2.6c-4,10.37-8.61,20.44-15.83,29.07a3.43,3.43,0,0,1-1.16.91c-3.6,1.09-7.31.45-11,.75a2.82,2.82,0,0,1-1.27-.66c-1-2-.27-3.9.28-5.78.84-2.9,2.59-5.29,1.79-8.9-.64-2.83,3.84-4.83,3.8-8.29,1.35-5.41,3.56-10.7,2.51-16.49A8.18,8.18,0,0,1,295.94,95c1.05-1.9,5.32-1,4.22-4.9-.14-.53,1.08-1.28,1.91-1.36C306.6,88.3,311.22,87,315.53,89.73Z" transform="translate(-1.7 34.04)"/><path class="cls-32" d="M297.57,153.76l1.61-.23c3.29-.85,6.05-4.16,10.12-1.65.89.55,3.1-.88,3.81-2.61.64-1.54,1.6-2.5,3.41-2.18,1.71.66,3.11,1.61,3.62,3.5a3.11,3.11,0,0,1-.5,2.38c-3.87,4.27-5.38,9.35-5.42,15a2.52,2.52,0,0,1-2.48,2.66c-3.84.09-5.7,2.92-7.92,5.31a6,6,0,0,1-1.19.78c-2.49,1.26-5.19,2.07-7.66,3.43a4.9,4.9,0,0,1-5.2-.07c-.14-5.36-4.08-8.18-7.58-11.31a3.62,3.62,0,0,1,.7-4.56C287.27,160,291.42,155.48,297.57,153.76Z" transform="translate(-1.7 34.04)"/><path class="cls-33" d="M319.52,150.65l-3-3a1.35,1.35,0,0,1,0-2,42.34,42.34,0,0,1,18-2.92,12.39,12.39,0,0,0,6.91,0,60.09,60.09,0,0,1,21.05,2.77,1.25,1.25,0,0,1,.23,1.39c-1.38,2-3.88,2.22-5.67,3.57-6,0-10.5,3.32-14.84,6.83-2.93,2.37-6.29,1.56-9.52,1.8-2.08.15-4.45-.45-5.61,2.12-1,2.17-1.82,4.5-5,3a6.82,6.82,0,0,1-4-8.16C318.59,154.32,320.73,152.92,319.52,150.65Z" transform="translate(-1.7 34.04)"/><path class="cls-34" d="M357.47,149.65c.46-3,3.6-1.54,5-3a9.67,9.67,0,0,0,5,0,5.39,5.39,0,0,1,4,1.1c2.11.46,2.84,1.87,1.68,3.57-3.59,5.25-1.88,11.06-2,16.69a3.07,3.07,0,0,1-2.77,2.19c-8.12-1.88-8.85-3-8.17-11.42C360.44,155.42,360.28,152.12,357.47,149.65Z" transform="translate(-1.7 34.04)"/><path class="cls-35" d="M370.42,167.49c-1.54-3.88-.35-8.1-1.51-12,3-.66,2-3.73,3.24-5.4,1-1.36-.41-1.59-.68-2.34l2.74,0c1.73.63,3.85.13,5.23,1.79l2.85,1.4q-4.94,7.34-9.88,14.68C372.21,166.73,372.24,168.1,370.42,167.49Z" transform="translate(-1.7 34.04)"/><path class="cls-36" d="M316.52,145.66v2c-.62.19-1.79.54-1.78.57,1.36,5-5.05,3.3-5.66,6.55,0,.12-.82.21-.83.19-2-7.05-6.28.44-9.07-1.44C304.24,149.32,310.2,147.08,316.52,145.66Z" transform="translate(-1.7 34.04)"/><path class="cls-36" d="M367.47,146.63c-1.66,2.19-3.32,2.7-5,0,0-.37,0-.73,0-1.1C364.19,145.74,366,145.27,367.47,146.63Z" transform="translate(-1.7 34.04)"/><path class="cls-37" d="M379.44,149.54a10.64,10.64,0,0,1-5.23-1.79C376.24,147.5,378.66,146.12,379.44,149.54Z" transform="translate(-1.7 34.04)"/><path class="cls-38" d="M341.45,142.79a6.38,6.38,0,0,1-6.92,0A13.64,13.64,0,0,1,341.45,142.79Z" transform="translate(-1.7 34.04)"/><path class="cls-37" d="M380.6,142.43a1.32,1.32,0,0,1-1.39,1c-.64,0-1.41-.1-1.17-1,.08-.31.67-.61,1.08-.7C379.7,141.64,380.38,141.6,380.6,142.43Z" transform="translate(-1.7 34.04)"/><path class="cls-39" d="M253.47,108.28c3.89-10,11.3-17.11,19.23-23.82,1-.83,2-1.69,2.94-2.53l1.93-.24c-.3,3.09,1.58,3.85,4.18,4.34,1.6.31,3.85.52,3.77,3.13,0,1.89.6,3.93-2.29,4.72-2.7.73-1.26,3.32-1.65,5.11-.29,1.36,3.75,3.72-.92,4.21-.23,0,0,1.86.92,2.51,1.93,2.26-.27,4.1-.6,6.13a27.55,27.55,0,0,1-6.6,10,5.79,5.79,0,0,1-1.21.63c-3.42,1.91-5,5.48-7.55,8.23a23.81,23.81,0,0,0-3.07,3.88c-.82,1.47-2,2.26-3.65,1.88-2-.46-1.94-2-1.64-3.53a5.21,5.21,0,0,0-1.62-5c-5.34-4.66-6.3-10-3.37-16.38A14.36,14.36,0,0,0,253.47,108.28Z" transform="translate(-1.7 34.04)"/><path class="cls-40" d="M224.43,42.21c1.91,4.45,5.83,7.77,7.13,12.57.17,3.55,2.46,6.37,3.35,9.69,1.3,4.79.26,6.37-4.75,6.67a8.2,8.2,0,0,1-2,0c-4.21-.75-6.15.93-6.12,5.26,0,1.86.32,5.08-1.84,5-2.57-.1-1.69-3.32-2-5.31-.17-1.26.53-2.67-.66-3.72a10.16,10.16,0,0,1-2.31-.65,2.94,2.94,0,0,1-1.64-1.87c.92-6.29,2.4-12.18,7.35-16.92,1.91-1.82,4.07-4.8,1.36-8.34-1.05-1.36-2.2-3.7-.67-5.83Z" transform="translate(-1.7 34.04)"/><path class="cls-39" d="M283.61,76.88l1.87-.4c0,3.93-2.74,3.31-5.2,3.15Z" transform="translate(-1.7 34.04)"/><path class="cls-40" d="M219.64,38.78c-1.63-1-2.92-2.15-.92-4,.48-.52.76-.42.83.28a2,2,0,0,0,.09.76Z" transform="translate(-1.7 34.04)"/><path class="cls-41" d="M219.55,35.05c-.28-.11-.55-.2-.83-.28-.49-1-1-1.89-1.46-2.84C219.59,31.82,219.68,33.35,219.55,35.05Z" transform="translate(-1.7 34.04)"/><path class="cls-42" d="M315.53,89.73c-2.65,0-5.3,0-7.95,0-7.36,0-7.36,0-6.88,7.35-1.63.53-.92-5.7-3.83-1.37-1.43.14-2.78.84-4.27.64a2,2,0,0,1-1.05-.64c1.23-2.45,2.89-4.8,1.62-7.79-.25-.58-.32-1.79.28-1.69,4,.71,3.92-5,8.18-5,1.81,0,4.37-2.49,7.11-3.36,2.19-.69-.09-3.62-.8-6.16h9.58C320.31,76.93,319.29,86.15,315.53,89.73Z" transform="translate(-1.7 34.04)"/><path class="cls-6" d="M289.54,73.64a11.59,11.59,0,0,1,12.17-5.72A60.62,60.62,0,0,1,289.54,73.64Z" transform="translate(-1.7 34.04)"/><path class="cls-43" d="M279.76,112.16c-.52-2.47,2.41-4,1.81-6.45,2.84-.66,3.37-4.08,6-5a2.22,2.22,0,0,1,.65,1.21,4.32,4.32,0,0,1-.18,1.39C285.93,106.86,284.21,110.79,279.76,112.16Z" transform="translate(-1.7 34.04)"/><path class="cls-44" d="M287.57,101.74c0-.35,0-.7,0-1,0-2.76,1.62-4.16,4-5l1.07,0a1.53,1.53,0,0,1,.24,1.31C291.37,98.93,290.82,101.86,287.57,101.74Z" transform="translate(-1.7 34.04)"/><path class="cls-42" d="M319.5,69.75c-.05,1.26.41,3-2,2A1.86,1.86,0,0,1,319.5,69.75Z" transform="translate(-1.7 34.04)"/><path class="cls-45" d="M187.56,106.69c.43-3-.88-6,0-9,2.59,1.15,2,3.49,2.1,5.58.1,1.9-.37,3.89.85,6.45,1.71-2.57.86-4.88,1.15-7,.24-1.67-.9-4.11,1.46-4.73s6.74-1.43,7.48.34c2.48,5.86,5.4,1.85,8.21,1.13a11.6,11.6,0,0,0,1.81-.8c.8,1.1.39,2.36.5,3.56-.27,10.55,1.84,21,.79,31.61-.4,1.77-1.55,3.65-3.27,2.89-4-1.74-8.63-1.17-12.26-3.88C190.23,125.25,186.85,116.66,187.56,106.69Z" transform="translate(-1.7 34.04)"/><path class="cls-46" d="M212.45,113.67q0,12,0,24c-.74,3.19,0,6.44-.39,9.64-.71,1.44-2,1.75-3.44,1.85a2.64,2.64,0,0,1-2.47-2.7c2.8-3.06,2.64-7.35,4.49-10.81q0-17,0-34c.32-.47.65-.49,1,0C212.07,105.69,210.79,109.78,212.45,113.67Z" transform="translate(-1.7 34.04)"/><path class="cls-47" d="M131.74,149.69a19.21,19.21,0,0,1-6.05-6.86c.45-1,4,1.4,2.38-2.34-.74-1.71,1.23-1.49,2.67-1.39,6.21.43,12.55-7.46,11-13.43a5.16,5.16,0,0,0-3.53-3.8c-2.36-.75-2,1.92-3.2,3-1.22-2.48-2.47-4.58,1.83-4.62.6,0,1.18-1,1.77-1.6,2.29.22,3.37,2.14,4.9,3.43,2.17,3.08,5.2,5.51,6.81,9,.1,1.78,1.15,3.31,1.29,5.09,1.16,7.9.6,8.77-7.27,11a5.78,5.78,0,0,0-3.41,1.93C138,153.28,135,152.33,131.74,149.69Z" transform="translate(-1.7 34.04)"/><path class="cls-48" d="M124,141.58c-2,.09-2.27-1.2-2.24-2.74A3.93,3.93,0,0,1,124,141.58Z" transform="translate(-1.7 34.04)"/><path class="cls-49" d="M169.48,106.76a57,57,0,0,1,13.18,20.93c-.73,2.64,1.46,4.67,1.51,7.15-3.24,5.53-7.21,6.71-13.74,3.31-2.09-1.08-3.47-2.3-6-1.11-1.27.6-2.63-1.13-4-1.55a5.41,5.41,0,0,1-1.25-.68,2.74,2.74,0,0,1-.89-2.58c.82-1.84,2.65-2.4,4.23-3.24,11.12-5.9,11.89-8.24,6.23-19.29,0-.33,0-.66,0-1C168,107.66,168,106.93,169.48,106.76Z" transform="translate(-1.7 34.04)"/><path class="cls-50" d="M168.72,109.7c6.67,5,7.45,12.5-.69,18-3,2-6.25,3.49-9.38,5.21-1.53.37-2.56-.62-3.7-1.33-.82-.77-1.85-1.46-1.27-2.86l-.88-2.19c3.95,1.44,6.29-1.61,7.34-4C162.25,117.58,165.73,113.86,168.72,109.7Z" transform="translate(-1.7 34.04)"/><path class="cls-50" d="M169.48,106.76l-.78,1.95c-1.73-.52-2.07-2.63-4.1-3.16-1.66-.43-.19-2,.37-3A13.16,13.16,0,0,1,169.48,106.76Z" transform="translate(-1.7 34.04)"/><path class="cls-51" d="M172.7,194.64l1.09.57c2.59,2.26,5.89,2.53,9,3.3,4.34,1.06,4.61,2.19,1.55,5.89a9.6,9.6,0,0,1-3.79.6c-1.82,0-3.66.14-5.42-.51-2.88-2.19-4.41-6.06-8.47-6.79l.11-.41C168,194.61,171.18,196.52,172.7,194.64Z" transform="translate(-1.7 34.04)"/><path class="cls-52" d="M99.79,188.67a45.59,45.59,0,0,1,11.33,2.78c-.45,1.24-2.38,2.52-.42,3.81,4.94,3.24,8,8.6,13.93,10.93,4.59,1.8,9,1.62,13.59,1.93,3.79.26,7.62-.33,11.41.43,1.85.81,3,2,1.88,4.12-1.55,2.19-4.88,1.92-6.16,4.5a39.79,39.79,0,0,1-23.41,2.33c-5.71-1-11.48-1.69-17.11-3-11.92-2.78-22.93-7.52-32-16.11,3.73-1.66,6.07,1.61,7.7,3.36,3.79,4.05,7.63,2.87,11.67,1.64,2.2-.67,2.44-6.85.18-7.43-4.23-1.09-4.82-6.64-9.73-7.06-1.23-.11-2-4,1.11-5.3C89.15,186.56,94.15,189.24,99.79,188.67Z" transform="translate(-1.7 34.04)"/><path class="cls-53" d="M99.79,188.67c-6,2.25-11-.49-16-3.07-1.42-3.12-1.39-3.2.92-3,.84,3.26,3.86,3,6.19,3.78C93.82,187.31,96.83,187.92,99.79,188.67Z" transform="translate(-1.7 34.04)"/><path class="cls-54" d="M145.78,159.43l-4-1.81c-3.22-2.8-7.38-4.41-10-7.93,3.65,1.63,6.76,1.51,9-2.43.78-1.36,2.39-1.5,4-1.63,5.47-.49,6.47-2,5.32-7.17-.18-.83.47-1.85.73-2.78.79-.48,1.71-.29,2.56-.47a2.89,2.89,0,0,1,1.22.46c1.87,2.2,4.11,4.13,5,7,1.17,3.09,1.07,5.76-2.24,7.56-1.26.68-1.51,1.94-1.68,3.35-.71,6.13-2,7-7.86,6A4.45,4.45,0,0,0,145.78,159.43Z" transform="translate(-1.7 34.04)"/><path class="cls-55" d="M106.79,273.84c-1.37.31-1.81,3.17-4.32.83-1.81-1.7-6.14,2.58-5.09,6.16.91,3.15-3.92,7.52,1.94,9.45-.5,1.34-1,2.68-1.51,4-2.7.1-5.41.24-8-.76-1.44-1.81-3.44-.57-5.14-1-.8-.18-1.67-.44-1.87-1.4a1.13,1.13,0,0,1,1.12-1.35c3.43-.1.23-1.62.53-2.36-7.72-2.58-4.65-8.73-4.59-13.88,5.87-12.47,14.78-22.62,24.57-32.08.88-.85,2.26-1.18,3.41-1.75,1.73.06,3.14,1,2.87,2.66-.56,3.61.93,7.22-.23,10.77a6.26,6.26,0,0,0-.14,4.33c.75,2.05.53,4.16-1.29,5.36-2.61,1.71-.49,2.9.11,4.31C109.56,269.83,106.21,271.13,106.79,273.84Z" transform="translate(-1.7 34.04)"/><path class="cls-56" d="M109,267.59c-1.23-1.37-3.09-1.65-4.56-2.31-.13-2.22,1.71-1.42,2.42-2.12.92-.91,2.65-2.58,2.52-2.76-3.23-4.21,2-8.48-.1-12.43-1.43-2.68,2.76-6.17-1.45-8.2,5.83-5.21,13-7.67,20.21-10.27,1.67-.61,3.64-.36,5-1.77a2.67,2.67,0,0,1,2.78-1.07,3.64,3.64,0,0,1,1.38.57c2.82,5,2,7-3.44,7.7-1,.14-2.11-.08-2.93.46-2,1.33-4.69,2.65-4.69,5.23,0,2.35,2.38,3.14,4.69,3.66,4.48,1,4.72,2.07,2.54,8.38-1.36,3.12-4.52,4.14-7,6-3.92,2-7.39,4.76-11.12,7.1C113.39,266.92,111.55,268.47,109,267.59Z" transform="translate(-1.7 34.04)"/><path class="cls-57" d="M79.86,273.6a12.25,12.25,0,0,1,1,7.08c-.64,4.84-.08,5.22,4.81,3.37-.72,2.52,3,5.64-1.81,7.1,1.45,2.25,5.34-1.8,6,2.4-4.8.19-9.42-.9-14.07-1.82-3.85-1.54-4.4-3.94-1.87-7.14Z" transform="translate(-1.7 34.04)"/><path class="cls-58" d="M73.87,284.59c-.82,2.76-.83,5.3,1.87,7.14-1.64-.53-4.25.53-4.81-1.5C70.31,288,71.72,285.87,73.87,284.59Z" transform="translate(-1.7 34.04)"/><path class="cls-19" d="M97.3,244.84a3.11,3.11,0,0,1-1,.52c-.51,0-.94-.28-.63-.88a1.17,1.17,0,0,1,.75-.53C96.9,243.85,97.31,244,97.3,244.84Z" transform="translate(-1.7 34.04)"/><path class="cls-59" d="M293.57,278.43c4.73,4.5,6.53,10.79,9.87,16.14v-.05c1.67,1.43,1.47,3.54,2,5.4l-.06,1.62a15.78,15.78,0,0,0-10.68,8.32c-.27.53-1.35,6-3.41.62l-2,1.06c-2.67-.54-3.24-3.05-4.38-4.9-2.67-4.3-5.42-8.55-8.12-12.83a25.78,25.78,0,0,1-3.14-6.41c-.23-1.4-1.2-3.07.45-4.06,1.47-.87,2.83.38,4.17,1,2.4,1,2.68,3.64,4,5.56.75-5.1.78-5.16,5.19-2.74,1.93,1.06,3.66.28,5.19-.51s.58-2.35.27-3.58C292.45,281.37,292,279.76,293.57,278.43Z" transform="translate(-1.7 34.04)"/><path class="cls-60" d="M206.53,359.36,207,345.5c1.63.09.94,1.38,1.11,1.85-.67-9.07,1.88-18.4.88-27.84l-.36-6.06c-.57-1.78-1.67-3.59.37-5.18a2.14,2.14,0,0,1,2,.83,4.31,4.31,0,0,1,.59,3.93c2.4-3,3.36-3,8.85.18,1.07.64,2.05,2.11,3.42,1.37s.64-2.37.57-3.61a12.08,12.08,0,0,1,.62-5.81c1.88-3.12,1.23-6.41.66-9.69a8.12,8.12,0,0,1,0-2.31c.61-1.69.21-3.81,2-5,.3,1.45.61,2.9.91,4.35a38.62,38.62,0,0,1,.07,11.95c1.68,4.94-.29,10.06.73,15-.92,3,0,6.16-.48,9.23-.39.89-1.13,1.65-1,2.73.93,9.26-1.55,18.4-.89,27.69.45,6.25-.44,6.74-6.59,6.75-2.32,0-4.63,0-6.95,0C205.52,366,207,365.9,206.53,359.36Z" transform="translate(-1.7 34.04)"/><path class="cls-61" d="M209,319.51c1.67,9.68.27,19.3-.47,29.89-.73-1.89-1.13-2.89-1.52-3.9-.06-1-.12-2-.19-3.05a4,4,0,0,1,.09-2.07l.63-3.95Z" transform="translate(-1.7 34.04)"/><path class="cls-62" d="M194.56,305.44c-2.16-4.31.8-8.37.64-12.59,0-.13.75-.29,1.15-.43l.48,2.37c.42,1.58.72,3.15-.2,4.68Z" transform="translate(-1.7 34.04)"/><path class="cls-63" d="M196.63,299.47c.07-1.56.13-3.12.2-4.68.24-.2.49-.39.74-.57C197.51,296,198.33,298,196.63,299.47Z" transform="translate(-1.7 34.04)"/><path class="cls-64" d="M243.63,288.49q-.93-10.65-1.85-21.3c-.85-.48-.68-1.06-.16-1.67,0-1.92.1-3.84.16-5.76a.75.75,0,0,1,1.14-.28c3.31,4,7.21,7.72,6.76,13.75-.17,2.28,2.77,2.51,3.94,4a17.83,17.83,0,0,0,4.26,4c1.2,4.55,0,9.59,3,13.8,1,1.46,1.68,3.24,2.78,4.7,4.6,6.14,6,6.3,11.8,1.47a2.58,2.58,0,0,1,2.52,1.25c3.56,5.2,8.69,9.2,11.57,14.93l-.17.22c-4.75,4.63-4.86,7.8-.68,12.36,1,1.1,1.71,3-.9,3-3,0-2.69,1.55-2.28,3.47a4.3,4.3,0,0,1-4.12.06c-3.35-1.07-6-3.25-8.79-5.3-.33-7.15-6.33-7.75-11.18-9.68-8.12-7.52-12.85-17-15.94-27.44C245,292.18,244.27,290.35,243.63,288.49Z" transform="translate(-1.7 34.04)"/><path class="cls-65" d="M206.53,359.36c2.29,1.32-.26,5.42,2.67,5.73a106.35,106.35,0,0,0,14.83.07c1.76-.07,1.58-1.86,1.59-3.15,0-3.78.2-7.58-.08-11.34-.5-6.51,2.61-12.87.57-19.44-.61-2,.88-2.57,2.52-2.79.91.43,1.08,1.33,1.4,2.14.28,1.26-.22,2.61.42,3.84l.26,2.75c1,3.69-.13,7.51.68,11.21l.27.95c1.09,1.94-.1,4.16.79,6.12l.34-.08c.16,4,1.25,8-.15,12h0c-8.33-1-16.66-1.38-25-.08C203.74,365.16,206.44,362.08,206.53,359.36Z" transform="translate(-1.7 34.04)"/><path class="cls-66" d="M227.8,288.15c-.48,1.76.49,3.83-1.16,5.33-2.51-2.88-2.11-6.57-2.4-9.92-.71-8.21,0-16.5-1-24.72a6.65,6.65,0,0,1,.9-4.78c1.71-1.29,1.84,0,2,1.23.26,2.73-.43,5.51.46,8.21l.9,4.37Q227.63,278,227.8,288.15Z" transform="translate(-1.7 34.04)"/><path class="cls-67" d="M261.47,321.51c.52-.39,1.42-1.19,1.51-1.11,2,1.81,3.9,2,6.76,1.58,1.79-.24,3.44,4,3.73,6.9.07.74-.53,1.54-.82,2.31C268.42,328.55,264.45,325.6,261.47,321.51Z" transform="translate(-1.7 34.04)"/><path class="cls-68" d="M285.44,338.53c2.83-.8,5.47-1.19,6.15,2.77A14.09,14.09,0,0,1,285.44,338.53Z" transform="translate(-1.7 34.04)"/><path class="cls-69" d="M228.78,304.45q0-6-.07-11.95A17.47,17.47,0,0,1,228.78,304.45Z" transform="translate(-1.7 34.04)"/><path class="cls-60" d="M231.39,348.38c-1.58-3.66-.46-7.47-.68-11.21C231.92,340.85,231.56,344.62,231.39,348.38Z" transform="translate(-1.7 34.04)"/><path class="cls-70" d="M229.4,330.36l-.77-1.92c.39-3-.86-6.11.88-8.95a25.36,25.36,0,0,1,.22,7.68C230.12,328.29,230.58,329.41,229.4,330.36Z" transform="translate(-1.7 34.04)"/><path class="cls-60" d="M229.4,330.36l.33-3.19a18.33,18.33,0,0,1,.72,7.25C229.24,333.29,229.83,331.69,229.4,330.36Z" transform="translate(-1.7 34.04)"/><path class="cls-68" d="M281.44,336.49c1.37-.1,2.73-1,4.12-.06l-.09,2.13A7.89,7.89,0,0,1,281.44,336.49Z" transform="translate(-1.7 34.04)"/><path class="cls-60" d="M232.45,355.45c-1.44-1.88-.61-4.07-.79-6.12C233,351.23,232.44,353.38,232.45,355.45Z" transform="translate(-1.7 34.04)"/><path class="cls-71" d="M179.67,280.5l-4.08,7c-2.16-1.93-2.56-3.76.81-5.3-7.4-1.42-7.36-1.41-6.94-8.65a10.92,10.92,0,0,0-.86-3.23,8.16,8.16,0,0,1,4-3.06c2.61,2.15,3.94,5.42,6.92,7.35C181.81,276.08,178.88,278.51,179.67,280.5Z" transform="translate(-1.7 34.04)"/><path class="cls-72" d="M167.62,257.48l-9.18,11c-1.17-1.41-.28-2.26.7-3.34,4.53-5,7.64-10.94,10.76-16.84,3-5.71,2.84-5.83-3.18-7.39a1.93,1.93,0,0,1,.18-1.16,4.13,4.13,0,0,1,.85-.87c.69-.48,1.39-.93,2.09-1.39a6.29,6.29,0,0,1,2.53-1,4.65,4.65,0,0,1,3.52.8,3.28,3.28,0,0,1,.67,1.36C175.08,245.62,173.15,252.4,167.62,257.48Z" transform="translate(-1.7 34.04)"/><path class="cls-3" d="M143.75,321.46v3a2.8,2.8,0,0,1-.83-3.55C143.55,319.71,143.52,321.13,143.75,321.46Z" transform="translate(-1.7 34.04)"/><path class="cls-73" d="M174.81,264.82c2.88-.94,4.73-3.84,7.92-4.17,6.16-.29,6.91.86,4.22,6.47a3.78,3.78,0,0,0-.43,2.36,49.42,49.42,0,0,1-6.85,11c-1.14-.59-2-1.29-.88-2.62s.55-3-.66-3.23c-4.23-.86-4.53-4.35-5.57-7.42Z" transform="translate(-1.7 34.04)"/><path class="cls-74" d="M186.48,282.11c3.21-6.07,7-11.86,9.32-18.38,2-.37,1.09,1.2,1.36,2,.71,4.25-1.81,8.6.42,12.8l0,2a4.68,4.68,0,0,0-1.41,1.62c.48-.2.65-1.12,1.43-.59l-.06,5c-2.36.2-2.62,1.94-3,3.79-.36,1.69-1.52,3.11-3.38,2.93s-1.19-2-1.46-3.17C189,287.24,186.61,285.13,186.48,282.11Z" transform="translate(-1.7 34.04)"/><path class="cls-75" d="M286.56,138.67h1c.88,4.59-.94,7.78-5.75,10a26.12,26.12,0,0,0-11.07,9.59c-3.77,3-7.92,4.73-12.84,4.11a7.33,7.33,0,0,1-3.76-4.6c3.54-7.12,7.7-13.75,14.32-18.49,3.74.57,1.69,4.13,3.15,6.23C276.52,143,281.5,140.74,286.56,138.67Z" transform="translate(-1.7 34.04)"/><path class="cls-76" d="M286.56,138.67c-2.33,2.53-4.83,4.86-8.53,5-1.72.06-2.63,1.23-3.68,2.22s-2.18,2.26-3.83,1.42-1.6-2.39-1-3.86a3.17,3.17,0,0,0-1-3.89,3.76,3.76,0,0,1,.38-3.53,3.5,3.5,0,0,1,3.79-1.65c1.47.95,1.75,2.24,1.48,2.81.13-2.05,1.63-3.88,4.52-5.66,3.19-2,5.06-5.91,5.34-10.14.36-5.34,3.94-7.43,9.5-5.69,0,.82.25,1.91-.17,2.41C288.36,124.06,289.49,132,286.56,138.67Z" transform="translate(-1.7 34.04)"/><path class="cls-77" d="M293.55,115.69c-2.8-.94-4.49,2.61-7.37,1.8-.66-.18-1.25,1.21-1,2,2,6.52-3.88,9.92-5.76,14.9-6.17-1.62-2.29,6.42-6.84,6.6-2.41-1.94,2.26-4.56-.12-6.67-.28-3.76,3.23-5.81,4.09-9.06a11.17,11.17,0,0,1,2.23-3.45c4.35-4.62,7-10.4,10.61-15.53a5.42,5.42,0,0,0,2.05-3,5.12,5.12,0,0,1,1.34-2.17,4.37,4.37,0,0,1,2.94-1.33c.45,4.18,1.86,8.47-1.39,12.23C293.35,113.06,293.61,114.41,293.55,115.69Z" transform="translate(-1.7 34.04)"/><path class="cls-78" d="M270.59,157.71c-.53-1.12-.86-2.77.25-3.12,4.44-1.4,5.93-6.68,11.11-7.52,3.71-.6,4.69-4.92,5.61-8.4,3.69-1.8,7.62-.36,11.41-.84-6.71,8.85-15.89,14.46-25.48,19.54C272.65,158.55,271.64,158.28,270.59,157.71Z" transform="translate(-1.7 34.04)"/><path class="cls-5" d="M317.36,99.7a13.25,13.25,0,0,1-1.82,6.06C316.09,103.72,314.07,100.92,317.36,99.7Z" transform="translate(-1.7 34.04)"/><path class="cls-36" d="M368.44,169.58l-.27.22-.35-.06c-2,.95-2.72,3.92-5.58,3.38-.44-.19-.71-.71-1.08-.87-.76-.33,2-2.32-.81-1.54a9.39,9.39,0,0,1-6.59-.43c-2.49-2.23.07-3.63.83-4.88-7-4.21-12.08,2.22-18.24,3a6.68,6.68,0,0,1-1.13.85c-1.71.93-3.83.45-5.48,1.6a31.72,31.72,0,0,1-10.89,2.5c-3.48-.69-6.6.89-9.86,1.58-1.85-.07-3.43,2.3-5.46.62,1.24-3.11,2.18-6.51,6.73-6,1,.12,3,.27,2.72-1.23-1.24-7.25,2.63-12.45,6.54-17.71,2.55,1.21,1.46,2.61.48,4.37-1.47,2.65-1.73,5.1,1.39,7.28,2.55,1.77,4.12,2.73,4.08-1.45,0-2.8,1.47-3.35,3.79-3.22a23,23,0,0,0,4,0c3.28-.37,6.11.38,9.41-3s8.64-7.11,14.82-4.95c7.32-.08,4.78,7.5,4.24,8.67C358.16,166.05,363.79,167.34,368.44,169.58Z" transform="translate(-1.7 34.04)"/><path class="cls-79" d="M276.39,173.58c1.8-1.89,3-4.45,5.89-5.09,5.92,1.69,9.1,6.56,7.28,11.13.8,1.12,3.39-.39,3.21,2.19-1.52,2.57-4.38,2.81-6.79,3.68-5.08,1.84-9.74,4.87-15.27,5.46-1.91-1.21-2.35-3.18-2.68-5.2A29.74,29.74,0,0,1,276.39,173.58Z" transform="translate(-1.7 34.04)"/><path class="cls-80" d="M292.54,181.59l-3-2c5,.9,8.4-3.47,13-4,.8.56,1.62,1.12,1.2,2.32a6.83,6.83,0,0,1-3.44,2.66C297.75,181.17,295.38,183.32,292.54,181.59Z" transform="translate(-1.7 34.04)"/><path class="cls-81" d="M303.54,177.44l-1-1.81c.33,0,.66,0,1,0l5-2c.53.82,2.18.09,2.22,1.6C308.91,177.81,306.67,179.09,303.54,177.44Z" transform="translate(-1.7 34.04)"/><path class="cls-82" d="M224.65,148.68l-4.13,5c-2,1.11-2-.53-2.51-1.68a14.33,14.33,0,0,1-1-5.25c-1.27-1.84,1.12-3.3.53-5.07-1.6-3.3-.71-6.67-.26-10,1-8.05-.18-16.1-.17-24.16,0-5.39,2.2-10.68.67-16.11q-.12-8.3-.23-16.59c-.52-1-.87-1.94.05-2.88.19-.79.23-1.78,1.28-1.86,1.28-.09,1,.81,1,1.66-.07,2.93,0,5.87,0,8.87,1-.28.8-1,.82-1.53.27-9.17.28-9.51,9.16-9.12,4.63.19,4.81-2.16,4.12-5.17a33.27,33.27,0,0,0-3.12-7.7c-.71-1.35-.11-1.71.77-2.24,3.91,7.3,7.5,14.72,8.86,23-1.61,3,0,5.91.31,8.78.55,5.7-1.64,11.12-1.14,16.77a18,18,0,0,0,.89,5.36c-.31,2.33-.61,4.66-.92,7a7.53,7.53,0,0,1-.11,4.31c-1.65,5.07-3.23,10.18-5.83,14.88C230.64,139.48,229.55,145.32,224.65,148.68Z" transform="translate(-1.7 34.04)"/><path class="cls-83" d="M253.47,108.28c.08,2.93.27,5.65-1.42,8.53-1.85,3.17.83,6.08,2.87,8.23,2.57,2.7,5.89,4.69,3.36,9.15-.4.69.2,1.23.93,1.36a1.5,1.5,0,0,0,1.88-1c1-2.05,2.07-4.08,4.48-4.85a.84.84,0,0,1,1.22.09c-.58,5-4.85,8.05-6.6,12.44-4.22,5.46-7.2,11.74-11.3,17.28-1.14,1.55-2.69,4.29-4.4.28-1.22-8.57-.26-16.88,1.88-25.3a78.15,78.15,0,0,0,1.88-17c.47-2.8.9-5.62,3.52-7.4Z" transform="translate(-1.7 34.04)"/><path class="cls-84" d="M240.48,108.68c-2.15-4.29-3.77-8.38-1.46-13.45,1.55-3.39.7-7.45.24-11.24-.26-2.11-1.44-4.57,1.16-6.22C242.74,88.07,242.39,98.37,240.48,108.68Z" transform="translate(-1.7 34.04)"/><path class="cls-85" d="M272.69,121.9q-3.06,3.88-6.11,7.79l-1,0C267.38,126.57,268.51,122.84,272.69,121.9Z" transform="translate(-1.7 34.04)"/><path class="cls-86" d="M206.72,146.53c-1.37-1.55-2.74-3.09-4.1-4.64-1.27-3.21-4.4-5.33-5.15-8.84,4.74-.87,8.63,2.52,13.18,2.62C210.39,139.67,212.08,144.38,206.72,146.53Z" transform="translate(-1.7 34.04)"/><path class="cls-87" d="M217,146.71q1.75,3.47,3.52,6.93c-1.66,5.31-.34,10.9-1.59,16.26-.25,1,.4,2.46-1.4,2.59s-2.15-1.08-2.32-2.54c-.42-3.78-.22-7.65-1.56-11.3-1.63-3,.75-4.82,2-7Z" transform="translate(-1.7 34.04)"/><path class="cls-88" d="M211.79,154.19c-.38-.84-.76-1.69-1.15-2.53.05-1.37-.28-2.82.82-4,.63-3.3-.64-6.8,1-10q.18,7,.35,14C212.94,152.69,214.41,154.26,211.79,154.19Z" transform="translate(-1.7 34.04)"/><path class="cls-89" d="M211.46,147.69c0,1.39.65,2.9-.82,4l-2.08-2.78C209.19,147.66,210.32,147.65,211.46,147.69Z" transform="translate(-1.7 34.04)"/><path class="cls-90" d="M149.58,131.71l3.18,3.91c-.65,1.08-1.35.2-2,.06C150.56,134.29,147.87,133.64,149.58,131.71Z" transform="translate(-1.7 34.04)"/><path class="cls-91" d="M189.82,148.65c.34,3.76.89,7.52,1,11.29a21.29,21.29,0,0,0,5.88,14.7c-1.93,1.47-2,1.52-3.51.31-2.36-1.84-3.87-4.47-6-6.52-2.35-3.24-4.47-6.65-7.34-9.49a7.08,7.08,0,0,1-1.34-3.41c-.15-4.1,1.94-6.46,5.84-7.18a11.93,11.93,0,0,0,4.46-1.87Z" transform="translate(-1.7 34.04)"/><path class="cls-92" d="M188.76,146.48c.44,2.63-1.53,3-3.25,3-4.34.16-5.94,2.61-6,6.57a3.63,3.63,0,0,1-3.08-1.84l-.3-.68a4.16,4.16,0,0,1-.07-1.45,12.09,12.09,0,0,1,3.34-4.89c3.41-3.53,5.27-7.54,4.31-12.55-1.7-2.13-2.95-4.32-1-7A52,52,0,0,1,188.76,146.48Z" transform="translate(-1.7 34.04)"/><path class="cls-91" d="M183.69,134.67c3.7,4.55.77,8.14-1.79,11.69-1.62,2.26-3.51,4.32-5.28,6.47-3.72-.06-4.92-3.67-7.52-5.32a9.55,9.55,0,0,1-2.59-3.06,9.61,9.61,0,0,0-3.45-3.76,6.54,6.54,0,0,1-2.14-2.5,4.24,4.24,0,0,1-.32-3.22c2.19-.07,4.72,2,6.48-1.15.22-.38,1.92-.18,2.1.64.72,3.35,2.64,3.29,5.44,2.64C176.6,136.65,182.47,135.63,183.69,134.67Z" transform="translate(-1.7 34.04)"/><path class="cls-50" d="M176,119.54l.93,1.34c-.33.22-.67.64-1,.62a1.17,1.17,0,0,1-1.09-1.3C174.87,119.68,175.13,119.31,176,119.54Z" transform="translate(-1.7 34.04)"/><path class="cls-93" d="M165.82,150.36l6.77,6.34c3.39.9,4.59,4.29,7,6.24,1.31,2.5,4.89,3.15,5.25,6.43-.77,1.33-2.19,1.26-3.43,1.58a4.85,4.85,0,0,1-3.8-1.2,86.83,86.83,0,0,1-22-5.89c-.06-.15-.2-.32-.17-.46.53-2.48,3.64-1.17,3.62-1.29-.58-2.62,1.64-3.88,2.63-5.66s2.16-3.72,3.35-5.5A1.78,1.78,0,0,1,165.82,150.36Z" transform="translate(-1.7 34.04)"/><path class="cls-94" d="M165.82,150.36c.35,3.6-2,6.91-4,8.49-4.15,3.33-.21,3.52,1.31,5-2.68,1.24-5.17-2.84-7.55,0a48.52,48.52,0,0,1-9.83-4.43c.59-.25,1.23-.8,1.77-.72,5.26.81,8.3-.37,6.3-6.55-.25-.77-.07-1.93.8-2.13,4.19-1,4.53-3.86,3.89-7.33A34.38,34.38,0,0,1,165.82,150.36Z" transform="translate(-1.7 34.04)"/><path class="cls-95" d="M187.68,167.64c2,1,3,3.07,4.49,4.51,1.13,1.07,1.79,4,4.49,2.49,2.26,1.3,2.65,2.91.81,4.89-.2.4-.47.45-.8.15-4.32-1.77-6.25-6.8-10.94-8.07a1.76,1.76,0,0,1-.64-1,2.37,2.37,0,0,1,.31-1.14A9.14,9.14,0,0,1,187.68,167.64Z" transform="translate(-1.7 34.04)"/><path class="cls-15" d="M175.7,195.52a21.67,21.67,0,0,0,7.51,2.17c4.36.53,5.09,2.66,2.62,6.83-.39-.25-1-.26-1.16-.79,1.54-2.43.93-3.68-2-4-3.46-.43-7.16-.55-8.9-4.48Z" transform="translate(-1.7 34.04)"/><path class="cls-96" d="M149.73,209.58c-6.94,0-14,.78-20.79-.35-3.92-.65-8.55-1.81-11.53-5.83-2-2.68-5.14-4.48-7.6-6.85-1-.93-3.28-.8-2.74-3s2.46-1.86,4.05-2.12l4.55.2c3,.91,6.26.4,9.1,2a.39.39,0,0,0,.63.12c1.43.64,3,.2,4.48.52a11.67,11.67,0,0,1,5.8,1.5l-.06,0c1.54,1.07,3.62-.43,5.07,1.07h-.06c1.53,1.1,3.3.85,5,.87.56.38,1.32.56,1.46,1.38-.35,1.87.6,2.38,2.31,2.81,6,1.53,6.06,2,1.72,6.39C150.67,208.68,150.22,209.15,149.73,209.58Z" transform="translate(-1.7 34.04)"/><path class="cls-97" d="M149.73,209.58c-.69-2.86,1.15-4,3.51-5.63a35.65,35.65,0,0,0-5-.94c-1.19-.06-2.59,1.18-3.33-.71s.95-2.58,1.78-3.71a17.16,17.16,0,0,1,7,.84c4.85,1.26,9.68,2.56,14.76,2.25.95.88,3-.32,3.28,1.42s-1.32,2.46-2.56,3.27A71.52,71.52,0,0,1,153,213.65l-2.11.32a.86.86,0,0,1-.14-1.39C151.5,211.21,151.3,210.17,149.73,209.58Z" transform="translate(-1.7 34.04)"/><path class="cls-96" d="M150.73,212.58c0,.46.09.93.14,1.39-1.53.83-3,1.85-4.84,1.76-1.41-1.14-1-1.76.58-2.12C148,213.3,149.35,212.92,150.73,212.58Z" transform="translate(-1.7 34.04)"/><path class="cls-98" d="M161.36,237.4c-2.61,1.23-5.37,2.19-7.57,4.17l-18,10-2.8,1.08c-.35-.52-1.11-1.37-1-1.51,3.8-4.6,1.6-5.85-3.12-5.59-3.71.2-3.56-3.65-5.45-5.36-.94-.85,2.53-2.05,2.9-2.95,1.9-4.57,5.68-3.25,9-3.81,4.11-.68,2.27-3.45,1.41-5.7,5.53-3,11.56-1.2,17.34-1.79,2.6,1.14,5.23,2.13,8.12.91a10.43,10.43,0,0,1,7.95,1.71,4.41,4.41,0,0,1,1.23,2.83A3.56,3.56,0,0,1,170,234,24,24,0,0,1,161.36,237.4Z" transform="translate(-1.7 34.04)"/><path class="cls-99" d="M293.57,278.43c.13,1.46.14,2.95.4,4.38.36,1.91,1.86,3.58,1.2,5.7-2.56-.9-4.74,1-7.21,1s-2.12-2.49-3.39-3.71c-2,2.62-.12,5.49-1.72,8.15-2.82-3.41-2.79-9.06-8.42-9.75.05.95.09,2,.14,3.13a1.27,1.27,0,0,1-1.76-.29c-4.57-5.87-9.64-11.38-12.71-18.29.58-2.53,1.73-4.24,4.75-3.4,1.91.54,3-.7,4.15-1.94s1.95-2.64,3.67-3.1C281.3,264.43,287.82,271,293.57,278.43Z" transform="translate(-1.7 34.04)"/><path class="cls-100" d="M272.67,260.31c-1.93,3.06-3.84,8.15-7.54,6.67-3.19-1.28-3.15.46-4.37,1.53-3.56-.79-5-4-7.08-6.36-1.08-1.5-2.67-2.69-2.87-4.72.66-4.16,2.51-6.69,7.25-5.25,2.7.57,5.5.93,7.16,3.56Z" transform="translate(-1.7 34.04)"/><path class="cls-101" d="M265.6,223.74l7-.24c4.47-2.32,9.35-2.26,14.17-2.49,1.59,2.88.53,7.73-2.18,9-1,.49-2.07,1-3.13,1.44-6,0-11.91-2-17.87,0a2.75,2.75,0,0,1-2-1l-4.21-2.77c-.42-3.13,1-4.07,4-3.74,3.3.37,6.52,1.82,9.7,1C269.43,224.36,267.05,226.53,265.6,223.74Z" transform="translate(-1.7 34.04)"/><path class="cls-102" d="M221.66,229.35l3.07.18c1.08,11.3,1.86,22.61,1.83,34-2.38-3,.58-7-1.92-10l-.59-.46c-1.7-2.64-1.79-5.65-1.92-8.62-.11-2.55-1.15-4.82-2-7.15-.49-1.37-1.34-2.37-2.91-2.18-1.74.21-1.88,1.69-2,3-.38,4.45.36,9-.63,13.39-.53,1.31-.87,2.75-2.44,3.28a1.19,1.19,0,0,1-1-1.28c.17-7.53-.42-15.06.31-22.58-.89-2.73,1.44-1,2.15-1.55A6.41,6.41,0,0,1,221.66,229.35Z" transform="translate(-1.7 34.04)"/><path class="cls-103" d="M306.65,250.94a32.76,32.76,0,0,1-2.1,10.76c-5.54.73-10.12-1.29-14.12-4.95-.66-1.95.65-2.91,1.94-3.87,4.58-2.44,10.15-3,13.74-7.81C307.53,247.18,307,249.06,306.65,250.94Z" transform="translate(-1.7 34.04)"/><path class="cls-104" d="M292.56,253.53l-2.13,3.22-1.86-1.26c-1-2.71-3.25-4.56-5-6.7-4.47-5.35-4.1-7.16,2.39-10.24a18.42,18.42,0,0,1,4-.47c2.9.42,6.18,0,7.89,3.27C291.3,243.37,293.77,249.24,292.56,253.53Z" transform="translate(-1.7 34.04)"/><path class="cls-105" d="M251.61,249.51l6.45,3.88c-3.84-1.08-5.74.79-6.52,4.33-2.9.59-4.3-1.51-5.9-3.26-1.33-2.66-5.23-2.74-6-6-.56-1.72-1.11-3.44-1.73-5.36,3.35-1.3,4.94,2.23,7.56,2.54v0A35.29,35.29,0,0,1,251.61,249.51Z" transform="translate(-1.7 34.04)"/><path class="cls-106" d="M285.56,239.53c-5,3.67-4.69,3.45-.66,8.6,1.59,2,5.06,3.66,3.67,7.36-5.78-2.86-9.36-7.87-12.73-13.08a3.32,3.32,0,0,1-1.74-3.47C277.69,235.91,282.81,236.17,285.56,239.53Z" transform="translate(-1.7 34.04)"/><path class="cls-107" d="M265.6,223.74c2,1.67,4.53.35,7.14,1.27-3.89,1.4-7.39.32-10.72-.15-2.83-.4-3.89.58-4.64,2.84-3.38-.23-6-2.43-9-3.6-2.76-1.07-.85-3-.79-4.53,4.77-1.06,8.68,1.82,12.91,3C262.21,223.08,263.94,223.26,265.6,223.74Z" transform="translate(-1.7 34.04)"/><path class="cls-108" d="M241.62,265.52c0,.56.11,1.11.16,1.67l-.39,5.23C240.77,270.07,239.87,267.7,241.62,265.52Z" transform="translate(-1.7 34.04)"/><path class="cls-109" d="M224.64,253.54q1,20,2,39.94v2c.35,3.39,1.74,6.89-1,10,.14,2.47-.34,5,.63,7.4a3.33,3.33,0,0,1-1.23,4c-1.66,1.21-2.67-.39-3.79-1.31-5.65-4.63-6.43-4.64-10.6.07v-6.17c-.06-14.94-.55-29.88,1.23-44.76a2.09,2.09,0,0,1,.8-1.21,1.32,1.32,0,0,1,1.33.21c1.37,1,.7,4.91,3.62,3.26,2.13-1.2,5.74-1.73,4.75-6.18-.5-2.28-2.09-6,2.25-7.25Z" transform="translate(-1.7 34.04)"/><path class="cls-61" d="M213.65,263.52a35.49,35.49,0,0,0-2,11c-.34,9.24.47,18.48-.42,27.76-.22,2.27-.79,4.76-.56,7.18l-1.19-1.36q0-9.32.07-18.63l.3-14.63c1.38-4.37.24-8.93,1-13.35a11,11,0,0,0,.72-1.86c.41-1.69-.44-3.67,1.12-5.11,0-1.1-.12-2.26,1-3A10.49,10.49,0,0,1,213.65,263.52Z" transform="translate(-1.7 34.04)"/><path class="cls-66" d="M225.64,305.47c1.74-3.19.72-6.65,1-10C227.67,299,229.43,302.49,225.64,305.47Z" transform="translate(-1.7 34.04)"/><path class="cls-110" d="M196.81,265.2a1.33,1.33,0,0,0-1-1.47c-.29-1.29.12-3-2-3.18-1.06-4.78,2.92-5.52,5.76-7.18l.18,2.17-.12,1.93c-1.66,1.68-1.27,4-1.78,6l.12,2-.42.06C197.1,265.88,196.86,265.75,196.81,265.2Z" transform="translate(-1.7 34.04)"/><path class="cls-29" d="M196.81,265.2l.74.34,0,13c-3.24-1.21-2-4-1.6-5.92A61.89,61.89,0,0,0,196.81,265.2Z" transform="translate(-1.7 34.04)"/><path class="cls-29" d="M197.57,281.53l-1.64,3.41c-.19-2.14-.9-3.86,1.62-4.44Z" transform="translate(-1.7 34.04)"/><path class="cls-111" d="M259.63,278.4q4.47,6.56,8.95,13.09l7,10.32c-.57,3.34-3.73,3.61-5.95,5-.84.51-1.44.2-2.09-.55-6.2-7.1-12.46-14.14-9.93-24.74A3.5,3.5,0,0,1,259.63,278.4Z" transform="translate(-1.7 34.04)"/><path class="cls-112" d="M259.63,278.4a3.22,3.22,0,0,1-2,3.1c-4.68-.51-6.27-5.32-10-7.19,3-6.61-4.74-9.54-5.11-15,.09-.94.18-1.88.26-2.82l2.85,2c1.86.29,2.47,1.68,2.86,3.26C252.42,267.15,256.9,272.19,259.63,278.4Z" transform="translate(-1.7 34.04)"/><path class="cls-113" d="M199.57,253.37c-1,3.1-4.85,4-5.76,7.18-3,2.48-5,5.8-7.29,8.93-.23-.59-.84-1.47-.64-1.72,3.36-4.38,1.15-6.19-3.15-7.11,1.8-2.13,4.36-2.69,6.87-3.36.6.27,1,.06,1.13-.55,2-1.72,4-3.44,5.94-5.15.74-.63,1.66-1.64,2.5-1C199.69,251.06,199.46,252.43,199.57,253.37Z" transform="translate(-1.7 34.04)"/><path class="cls-114" d="M169.74,229.48l5,.36c1.49.29,3.09.44,3.39,2.41,0,1.27,0,2.55,0,3.83-.53,1-1,2-2.44,1.49l-3.86,0c-1.21-1.51-.44-3,.08-4.47-.59-.33,2-.31.08-.79a2.46,2.46,0,0,1-1.19-.55Z" transform="translate(-1.7 34.04)"/><path class="cls-115" d="M169.73,238.58a8.12,8.12,0,0,1,1-5c.49-.77.95-1.63,2.1-.94a9,9,0,0,1-1,5Z" transform="translate(-1.7 34.04)"/><path class="cls-116" d="M184.72,231.62c-2.12,1.59-4.95,2-6.76,4.11-1.35-1-1.63-2-.27-3.19a35.76,35.76,0,0,0,2.05-4.82.69.69,0,0,1,.71-.29,19.33,19.33,0,0,0,5.07-1.31c1.49-.66,3.44-1.33,4.11,1.29l-1.91,1.47a4.49,4.49,0,0,1-3,2.71Z" transform="translate(-1.7 34.04)"/><path class="cls-109" d="M211.68,260.5l-.87,1c-.11-10,.75-19.92,0-29.89a4.78,4.78,0,0,0,.68-.67q.15,11.81.29,23.6A9.35,9.35,0,0,1,211.68,260.5Z" transform="translate(-1.7 34.04)"/><path class="cls-117" d="M189.63,227.41a2.94,2.94,0,0,0-4.06-.11c-1.71,1.19-3.39.91-5.12.13,3.47-1.7,6.33-5.18,10.88-3.69C191.66,225.37,192.19,227.1,189.63,227.41Z" transform="translate(-1.7 34.04)"/><path class="cls-73" d="M190.73,256.74c.2.78,1.36,1.8,0,2.25-.83.27-.93-1-1.08-1.7Z" transform="translate(-1.7 34.04)"/><path class="cls-118" d="M350.56,189.65c-3.19,2.06-5.19,5.59-8.83,7.08-3.07.09-5.22-2.44-8.73-2.19a18.69,18.69,0,0,0-12.35,5.31c-6.42,6.16-13.84,8.55-22.64,6.35-1.9-.48-3.95-.16-5.92-.25-1.78-.08-3.73.2-4.78-1.82,1.7-3.38,8.1-7,11.1-5.93,2.14.8,2.66-.81,3.62-1.68,2.2-2,4-4.55,7.48-4.33a7.15,7.15,0,0,0,5.7-3.5c2.05-3.18,5.09-5.12,8.19-7,2.65-1.64,5.18-3.85,8.41-1a2,2,0,0,0,1.92.14c7.28-2.48,10.81,4.11,16,6.65C350.45,187.76,350.52,188.81,350.56,189.65Z" transform="translate(-1.7 34.04)"/><path class="cls-119" d="M350.56,189.65a12.45,12.45,0,0,0-5.76-3.74,4.94,4.94,0,0,1-3.61-2.75c-1.55-2.94-4.61-1.56-7.08-1-.85.2-1.4,1.21-2.62.74-1.46-.56-1.73-3.79-3.68-2.35-3.4,2.5-7.75,3.64-10.3,7.37-1.93,2.83-3.72,6-8,5.65a2.67,2.67,0,0,1-.18-4c1.84-1.88,4.1-3.33,2.24-6.57-.42-.73,1.1-1.44,2.11-1.57s1.61-.34.6-1.35c2.19-2.9,5.91-2.77,8.73-4.42a28.08,28.08,0,0,1,3.43-1.24c2.42-.41,4.66-1.42,7-2a28.68,28.68,0,0,0,7.17-1.86c3.13-.34,5.82-2.43,9.07-2.33a4.91,4.91,0,0,1,3.75,1.35c1.95,0,4,.34,5.84-.08,3-.66,2.59,1.58,3.15,3.08.82,3.27-1.54,5.08-3.21,7.29-1.49,2-3.64,3.41-4.66,5.75A13,13,0,0,1,350.56,189.65Z" transform="translate(-1.7 34.04)"/><path class="cls-120" d="M287.56,203.6c11.86,1.94,23.89,5.23,33.52-6,2.89-3.36,6.93-3.81,11.39-4.45s6.84.61,9.26,3.55c-3.57,3.19-8.53,3.89-12.23,6.83-7.94,1.7-15.86,3.5-24,4.14-7.75,1.3-15.37,1.72-22.12-3.45a1.35,1.35,0,0,1,.9-1.35A2.88,2.88,0,0,1,287.56,203.6Z" transform="translate(-1.7 34.04)"/><path class="cls-121" d="M354.59,185.67c-.58-2.95,2.38-3.89,3.54-5.82,1.45-2.39,3.1-4.68,4.33-7.22,2.08-.42,3-3,5.36-2.89A52.27,52.27,0,0,1,354.59,185.67Z" transform="translate(-1.7 34.04)"/><path class="cls-122" d="M250.43,162.27c1.44-1.53,2.87-3.06,4.31-4.58,1,1.33,2.72,2.12,2.89,4l-6.27,2.87a1.42,1.42,0,0,1-1.94.18C248.94,163.61,250.21,163.15,250.43,162.27Z" transform="translate(-1.7 34.04)"/><path class="cls-34" d="M353.47,169.63l-4.26-.14c0-.87,0-1.66-1.28-1.21a16.55,16.55,0,0,1-4.86.75c-.5,0-1,0-1.5,0-2.1-.05-4.24.1-6-1.32,3.85-2.49,9.12-2.42,12-6.66,2.48,2.84,5.56,2.73,8.85,1.94.2,0,.82.92.94,1.49a1.84,1.84,0,0,1-1.42,2.28C354.3,167.17,353.11,167.67,353.47,169.63Z" transform="translate(-1.7 34.04)"/><path class="cls-123" d="M270.59,190.14l-1.86,1.53c-2.08,1.7-5.33,2.23-5.67,5.67-.34.65-1,.85-1.59,1.2-2.68.82-5.35,1.67-8,2.44-1.29.37-2.92,1.83-3.77-.24-.79-1.91-.62-3.84,1.72-5,3.67-1.87,7.95-2.42,11.2-5.17,2.66-.89,4.33-3.06,6.26-4.89Q269.73,187.91,270.59,190.14Z" transform="translate(-1.7 34.04)"/><path class="cls-124" d="M250.43,162.27l-.93,2.35c-.35.65-1.78.91-.75,2.06a29.85,29.85,0,0,1-6.15,7.85c-3.52-2.24,1.15-4.67-.16-7,.46-.95.91-1.89,1.37-2.83Z" transform="translate(-1.7 34.04)"/><path class="cls-125" d="M242.44,167.57c1.61.12,1.91,1.05,1.05,2.18a4.74,4.74,0,0,0-.89,4.78c-1.09,1-1.54,3.74-3.33,2.74-1.54-.85-1.13-3.18-.06-4.83S241.36,169.19,242.44,167.57Z" transform="translate(-1.7 34.04)"/><path class="cls-126" d="M248.75,166.68c-1.6-1.36-.6-1.77.75-2.06l1.86,0C251.11,166.06,249.41,165.72,248.75,166.68Z" transform="translate(-1.7 34.04)"/><path class="cls-127" d="M244.64,133.67c-.55-2.08,1.5-3.62,1.15-5.65,1.77-3.33,1.36-7.43,3.73-10.54-.63,7-1,13.94-3,20.91-1.9,6.81-2,14.24-1,21.46l-.85-.32c-1.18-5.23-1-10.56-1.2-15.87.06-1.29.13-2.58.19-3.87C244.85,137.89,243.35,135.56,244.64,133.67Z" transform="translate(-1.7 34.04)"/><path class="cls-128" d="M184.63,168.87l1.05.83,0,1.09c-1.42-.15-2.88-.17-4.09-1.11C182.63,169.58,183.78,169.79,184.63,168.87Z" transform="translate(-1.7 34.04)"/><path class="cls-91" d="M235.52,195.6c4.23,8.68,2.41,17.07-4.93,22.8-1.61-.42-2.87,1.2-4.49.78-5.89-.39-10.53-3.59-15.18-6.77-2.2-1.51-3.95-3.75-7.33-2-2.08,1-2.63-1.18-2.89-2.87-.5-3.29,0-6.58.09-9.87a14.08,14.08,0,0,1,5.69-8.1c2.14-.4,2.11,2.2,3.72,2.67.69.21,1.08,1.51,1.92,1.44,7.76-.66,15,5.59,23,1.69C235.2,195.29,235.39,195.5,235.52,195.6Z" transform="translate(-1.7 34.04)"/><path class="cls-129" d="M235.52,195.6c-6.32,2.55-12.63,4.93-18.32-1.33a1.76,1.76,0,0,0-2.29-.4c-6.15,5.39-5.64-2.16-8-4.07-.13-.1-.27-.19-.41-.28,6.33-5.72,13.36-6.14,20.9-2.79,2.42.49,4.61,1.27,5.14,4.12Z" transform="translate(-1.7 34.04)"/><path class="cls-130" d="M200.79,197.62c1.79,2.26,0,4.75.46,7.09.35,1.7,0,3.62,1.47,5.07,1.86-.65.12-3,1.78-3.6,6.94,4.89,13.65,10.24,22.14,12.39-4.29,3.59-11.34,4.25-15.45.92a10.37,10.37,0,0,0-6.67-2.58C199,211.32,198.17,204.8,200.79,197.62Z" transform="translate(-1.7 34.04)"/><path class="cls-131" d="M226.51,221.52a33.06,33.06,0,0,1-16.82-.07c-1.68-1.56-4-2.37-5.17-4.54,2.61-.45,5.19-3.53,7.43,1.6.87,2,6.07,2.31,9.52,1.59,1.75-.36,3.45-1,5.17-1.53,1.3-.52,2.57-1.68,4-.17Z" transform="translate(-1.7 34.04)"/><path class="cls-117" d="M179.74,227.72c1.24,2.42.74,4.1-2.05,4.82-.46-1.45-2-1.76-2.9-2.7l1.93-1.27Z" transform="translate(-1.7 34.04)"/><path class="cls-132" d="M154.68,227.47l7,.24C159.3,229.5,157,228.84,154.68,227.47Z" transform="translate(-1.7 34.04)"/><path class="cls-133" d="M172.81,232.62l-2.1.94-1.45-.14,1.56-1.62C171.45,232.16,172.93,230.43,172.81,232.62Z" transform="translate(-1.7 34.04)"/><path class="cls-134" d="M297.55,221.63c5.17-.74,10.06.41,14.86,2.2.17,1-.07,2.21,1.06,2.89.66,3-1.27,5.82-.87,8.83-1.24,4.36-4.13,2.75-6.81,1.88-3.94-1.24-8.23.19-12.09-1.63-1.56-.82-3.33-.82-5-1.22a3.71,3.71,0,0,1-1.25-.78,1.81,1.81,0,0,1-.07-1.39A44.74,44.74,0,0,0,297.55,221.63Z" transform="translate(-1.7 34.04)"/><path class="cls-135" d="M312.6,235.55c-1.53-3.13.44-5.9.87-8.83l1-.05Q313.54,231.11,312.6,235.55Z" transform="translate(-1.7 34.04)"/><path class="cls-136" d="M292.56,253.53c-2-3.19-1.18-6.78-.77-10s3.74-1.42,5.74-1.94a1.45,1.45,0,0,1,2-.1,20.39,20.39,0,0,0,3.59,1.66c4.54,1.15,5.27,3.9,3.52,7.83-.09-1.43-.18-2.85-.27-4.34C303,251.64,297.67,252.37,292.56,253.53Z" transform="translate(-1.7 34.04)"/><path class="cls-137" d="M297.55,221.63c.48,1.92,1.37,4.11-1.63,4.63-2.44.42-2,2.82-3.19,4-1.44,1.37-3.06,2.6-5.27,2.38a3.08,3.08,0,0,1-2.11.46c-1.53-.42-3.74.16-3.76-2.51.7-.51.34-1.19.31-1.82,5.44.7,2.9-5.24,5.64-6.79l6-.28a1.94,1.94,0,0,0,3,0Z" transform="translate(-1.7 34.04)"/><path class="cls-138" d="M281.59,230.56l4,2c-5,2.92-10.22,2-15.42.84a48.44,48.44,0,0,1-4.65-1.74l-1.94-1.05c4.13-2.06,8.39-2,12.76-.92C278.05,230.06,279.83,230.26,281.59,230.56Z" transform="translate(-1.7 34.04)"/><path class="cls-66" d="M213.65,263.52v-12c0-4.79.06-9.58,0-14.36,0-2.24.51-4.36,3-4.12,1.91.18,4.19-.09,5.2,3.24,1.73,5.69,1.86,11.51,2.8,17.25-2.7,2-.72,4.63-.93,6.94-.25,2.73-.06,5.5-.06,8.21-2.61.29-1.44-2.32-3.4-2.5-.62,2.07-1.74,4.14-4.63,3.23C212.31,268.38,214.16,265.54,213.65,263.52Z" transform="translate(-1.7 34.04)"/><path class="cls-66" d="M211.68,260.5q0-3,.1-6h.87C212.36,256.52,213.42,258.74,211.68,260.5Z" transform="translate(-1.7 34.04)"/><path class="cls-139" d="M251.61,249.51a12.8,12.8,0,0,1-6.15-3.86A7.25,7.25,0,0,1,251.61,249.51Z" transform="translate(-1.7 34.04)"/><path class="cls-140" d="M265.5,231.62c6.64,1.48,13.37.83,20.07.9l1.9.09a4.48,4.48,0,0,1,0,1c-1.24.4-2.74.58-2.76,2.34,0,1.56,1.46,1.53,2.44,2s1.71.94,2.56,1.42l-4.2.16c-3.67-.92-7.35-2.46-11,.05A22.91,22.91,0,0,0,265.5,231.62Z" transform="translate(-1.7 34.04)"/><path class="cls-141" d="M276.16,201.73c-2.31-1-6.78-.11-4.64-5.15q15.25-6.6,31.06-11.79c1.62-.18,3.49.06,3.91-2.25,2.4-1.71,4.8-3.44,8-1.95l1.26.61c-1.74,1.1-2.13,2-1.47,4.48.71,2.65-3.42,3.62-4.62,6a5,5,0,0,0-.1,2c-4.25-1-6.18,3-7.42,5.08-2.91,4.79-4,2.51-5.92-1.72-.42,6.93-6.8,2.95-8.63,6.64l-3-.07C282,201.89,278.91,202.63,276.16,201.73Z" transform="translate(-1.7 34.04)"/><path class="cls-118" d="M276.16,201.73c2.82.56,6.3-2,8.43,1.8l-1.37.24A14.39,14.39,0,0,1,276.16,201.73Z" transform="translate(-1.7 34.04)"/><path class="cls-142" d="M264.58,197.56h-2c-1.81-6,2.95-5.13,6.16-5.89A11.67,11.67,0,0,1,264.58,197.56Z" transform="translate(-1.7 34.04)"/><path class="cls-143" d="M244.64,133.67a10.6,10.6,0,0,1-1,6.12C243.85,137.73,242.84,135.47,244.64,133.67Z" transform="translate(-1.7 34.04)"/><path class="cls-134" d="M296.55,221.62c-.17,1-.44,1.89-1.71,1.75-1-.11-1.14-.93-1.29-1.7Z" transform="translate(-1.7 34.04)"/><path class="cls-140" d="M293.52,234.52c-1.76.19-3.51.33-5-.84C290.23,233.51,292,233.08,293.52,234.52Z" transform="translate(-1.7 34.04)"/><text class="cls-144" transform="translate(332.22 342.72)">Arcadia</text><text class="cls-145" transform="translate(506.17 393.34) scale(1.52 1)">ZOO ECOLOGIQUE</text><rect class="cls-55" x="411.59" y="379.3" width="73.7" height="4.54"/><rect class="cls-55" x="902.55" y="381" width="73.7" height="4.54"/></svg>